{"scene":0,"scenes":[{"nodes":[0]}],"asset":{"version":"2.0","generator":"https://github.com/mikedh/trimesh"},"accessors":[{"componentType":5125,"type":"SCALAR","bufferView":0,"count":127554,"max":[21297],"min":[0]},{"componentType":5126,"type":"VEC3","byteOffset":0,"bufferView":1,"count":21298,"max":[1406.0,27133.0,206.0],"min":[595.0,5710.0,30.0]}],"meshes":[{"name":"geometry_0","extras":{"processed":true},"primitives":[{"attributes":{"POSITION":1},"indices":0,"mode":4}]}],"nodes":[{"name":"world","children":[1]},{"name":"geometry_0","mesh":0}],"buffers":[{"uri":"gltf_buffer_0.bin","byteLength":510216},{"uri":"gltf_buffer_1.bin","byteLength":255576}],"bufferViews":[{"buffer":0,"byteOffset":0,"byteLength":510216},{"buffer":1,"byteOffset":0,"byteLength":255576}]}