{"scene":0,"scenes":[{"nodes":[0]}],"asset":{"version":"2.0","generator":"https://github.com/mikedh/trimesh"},"accessors":[{"componentType":5125,"type":"SCALAR","bufferView":0,"count":117192,"max":[19558],"min":[0]},{"componentType":5126,"type":"VEC3","byteOffset":0,"bufferView":1,"count":19559,"max":[1395.0,26838.0,190.0],"min":[611.0,5400.0,31.0]}],"meshes":[{"name":"geometry_0","extras":{"processed":true},"primitives":[{"attributes":{"POSITION":1},"indices":0,"mode":4}]}],"nodes":[{"name":"world","children":[1]},{"name":"geometry_0","mesh":0}],"buffers":[{"uri":"gltf_buffer_0.bin","byteLength":468768},{"uri":"gltf_buffer_1.bin","byteLength":234708}],"bufferViews":[{"buffer":0,"byteOffset":0,"byteLength":468768},{"buffer":1,"byteOffset":0,"byteLength":234708}]}